<svg xmlns="http://www.w3.org/2000/svg" version="1.1" xmlns:xlink="http://www.w3.org/1999/xlink" xmlns:svgjs="http://svgjs.dev/svgjs" width="2000" height="1999" viewBox="0 0 2000 1999"><g transform="matrix(1,0,0,1,-0.431486880466764,-0.4312711370263287)"><svg viewBox="0 0 343 343" data-background-color="#faecdc" preserveAspectRatio="xMidYMid meet" height="1999" width="2000" xmlns="http://www.w3.org/2000/svg" xmlns:xlink="http://www.w3.org/1999/xlink"><g id="tight-bounds" transform="matrix(1,0,0,1,0.0740000000000407,0.07400000000001228)"><svg viewBox="0 0 342.85155851775386 342.85155851775386" height="342.85155851775386" width="342.85155851775386"><g><svg></svg></g><g><svg viewBox="0 0 342.85155851775386 342.85155851775386" height="342.85155851775386" width="342.85155851775386"><g><path d="M0 171.426c0-94.676 76.75-171.426 171.426-171.426 94.676 0 171.426 76.75 171.426 171.426 0 94.676-76.75 171.426-171.426 171.426-94.676 0-171.426-76.75-171.426-171.426zM171.426 334.221c89.909 0 162.795-72.886 162.795-162.795 0-89.909-72.886-162.795-162.795-162.795-89.909 0-162.795 72.886-162.795 162.795 0 89.909 72.886 162.795 162.795 162.795z" data-fill-palette-color="tertiary" fill="#e13f2a" stroke="transparent"></path><ellipse rx="164.56874808852186" ry="164.56874808852186" cx="171.42577925887693" cy="171.42577925887693" fill="#e13f2a" stroke="transparent" stroke-width="0" fill-opacity="1" data-fill-palette-color="tertiary"></ellipse></g><g transform="matrix(1,0,0,1,64.84655864529837,123.57283002519044)"><svg viewBox="0 0 213.1584412271571 95.70589846737298" height="95.70589846737298" width="213.1584412271571"><g><svg viewBox="0 0 213.1584412271571 95.70589846737298" height="95.70589846737298" width="213.1584412271571"><g><svg viewBox="0 0 213.1584412271571 95.70589846737298" height="95.70589846737298" width="213.1584412271571"><g id="textblocktransform"><svg viewBox="0 0 213.1584412271571 95.70589846737298" height="95.70589846737298" width="213.1584412271571" id="textblock"><g><svg viewBox="0 0 213.1584412271571 95.70589846737298" height="95.70589846737298" width="213.1584412271571"><g transform="matrix(1,0,0,1,0,0)"><svg width="213.1584412271571" viewBox="0.98 -35.51044921875 80.17 36.00044921875" height="95.70589846737298" data-palette-color="#faecdc"><path d="M33.13-35.01L33.13-8.91Q33.13-7.01 32.47-5.37 31.81-3.74 30.63-2.54 29.44-1.34 27.81-0.67 26.17 0 24.24 0L24.24 0 0.98 0 0.98-6.35 24.24-6.35Q25.42-6.35 26.07-7.02 26.73-7.69 26.73-8.91L26.73-8.91 26.73-35.01 33.13-35.01ZM81.15-32.3L81.15 0 74.75 0 74.75-20.85 63.5-1.05Q63.08-0.29 62.34 0.1 61.59 0.49 60.74 0.49L60.74 0.49Q59.91 0.49 59.19 0.1 58.47-0.29 58.05-1.05L58.05-1.05 46.75-20.85 46.75 0 40.4 0 40.4-32.3Q40.4-33.4 41.05-34.25 41.7-35.11 42.75-35.4L42.75-35.4Q43.26-35.52 43.77-35.49 44.28-35.45 44.76-35.27 45.24-35.08 45.63-34.75 46.02-34.42 46.29-33.96L46.29-33.96 60.74-8.84 75.19-33.96Q75.75-34.89 76.74-35.28 77.73-35.67 78.81-35.4L78.81-35.4Q79.83-35.11 80.49-34.25 81.15-33.4 81.15-32.3L81.15-32.3Z" opacity="1" transform="matrix(1,0,0,1,0,0)" fill="#faecdc" class="wordmark-text-0" data-fill-palette-color="quaternary" id="text-0"></path></svg></g></svg></g></svg></g></svg></g><g></g></svg></g></svg></g></svg></g><defs></defs></svg><rect width="342.85155851775386" height="342.85155851775386" fill="none" stroke="none" visibility="hidden"></rect></g></svg></g></svg>