<svg xmlns="http://www.w3.org/2000/svg" version="1.1" xmlns:xlink="http://www.w3.org/1999/xlink" xmlns:svgjs="http://svgjs.dev/svgjs" width="1500" height="935" viewBox="0 0 1500 935"><g transform="matrix(1,0,0,1,-0.9090909090909918,0.3785425101214628)"><svg viewBox="0 0 396 247" data-background-color="#ffffff" preserveAspectRatio="xMidYMid meet" height="935" width="1500" xmlns="http://www.w3.org/2000/svg" xmlns:xlink="http://www.w3.org/1999/xlink"><g id="tight-bounds" transform="matrix(1,0,0,1,0.2400000000000091,-0.09999999999999432)"><svg viewBox="0 0 395.52 247.2" height="247.2" width="395.52"><g><svg></svg></g><g><svg viewBox="0 0 395.52 247.2" height="247.2" width="395.52"><g><path d="M55.039 247.2l26.403-45.732h7.584l-22.403 38.804h262.274l-22.403-38.804 7.584 0 26.403 45.732zM197.76 0l26.403 45.732-7.583 0-18.82-32.596-18.82 32.596-7.583 0z" fill="#7a26c1" fill-rule="nonzero" stroke="none" stroke-width="1" stroke-linecap="butt" stroke-linejoin="miter" stroke-miterlimit="10" stroke-dasharray="" stroke-dashoffset="0" font-family="none" font-weight="none" font-size="none" text-anchor="none" style="mix-blend-mode: normal" data-fill-palette-color="tertiary"></path></g><g transform="matrix(1,0,0,1,73.8818201708199,67.97999999999999)"><svg viewBox="0 0 247.75635965836017 111.24" height="111.24" width="247.75635965836017"><g><svg viewBox="0 0 247.75635965836017 111.24" height="111.24" width="247.75635965836017"><g><svg viewBox="0 0 247.75635965836017 111.24" height="111.24" width="247.75635965836017"><g><svg viewBox="0 0 247.75635965836017 111.24" height="111.24" width="247.75635965836017"><g id="textblocktransform"><svg viewBox="0 0 247.75635965836017 111.24" height="111.24" width="247.75635965836017" id="textblock"><g><svg viewBox="0 0 247.75635965836017 111.24" height="111.24" width="247.75635965836017"><g transform="matrix(1,0,0,1,0,0)"><svg width="247.75635965836017" viewBox="0.98 -35.51044921875 80.17 36.00044921875" height="111.24" data-palette-color="#7a26c1"><path d="M33.13-35.01L33.13-8.91Q33.13-7.01 32.47-5.37 31.81-3.74 30.63-2.54 29.44-1.34 27.81-0.67 26.17 0 24.24 0L24.24 0 0.98 0 0.98-6.35 24.24-6.35Q25.42-6.35 26.07-7.02 26.73-7.69 26.73-8.91L26.73-8.91 26.73-35.01 33.13-35.01ZM81.15-32.3L81.15 0 74.75 0 74.75-20.85 63.5-1.05Q63.08-0.29 62.34 0.1 61.59 0.49 60.74 0.49L60.74 0.49Q59.91 0.49 59.19 0.1 58.47-0.29 58.05-1.05L58.05-1.05 46.75-20.85 46.75 0 40.4 0 40.4-32.3Q40.4-33.4 41.05-34.25 41.7-35.11 42.75-35.4L42.75-35.4Q43.26-35.52 43.77-35.49 44.28-35.45 44.76-35.27 45.24-35.08 45.63-34.75 46.02-34.42 46.29-33.96L46.29-33.96 60.74-8.84 75.19-33.96Q75.75-34.89 76.74-35.28 77.73-35.67 78.81-35.4L78.81-35.4Q79.83-35.11 80.49-34.25 81.15-33.4 81.15-32.3L81.15-32.3Z" opacity="1" transform="matrix(1,0,0,1,0,0)" fill="#7a26c1" class="wordmark-text-0" data-fill-palette-color="primary" id="text-0"></path></svg></g></svg></g></svg></g></svg></g><g></g></svg></g></svg></g></svg></g></svg></g><defs></defs></svg><rect width="395.52" height="247.2" fill="none" stroke="none" visibility="hidden"></rect></g></svg></g></svg>